<svg width="100%" height="100%" viewBox="0 0 32 32" version="1.1" xmlns="http://www.w3.org/2000/svg">
    <path
        d="M180.25,180L180.25,212.775C180.25,221.127 173.377,228 165.025,228L43.225,228C34.873,228 28,221.127 28,212.775L28,90.975C28,82.623 34.873,75.75 43.225,75.75L76,75.75L76,40C76,33.417 81.417,28 88,28L216,28C222.583,28 228,33.417 228,40L228,168C228,174.583 222.583,180 216,180L180.25,180ZM136.858,94.02L46.27,94.02L46.27,209.73L58.45,209.73L58.45,173.19C58.45,164.838 65.322,157.965 73.675,157.965L134.575,157.965C142.927,157.965 149.8,164.838 149.8,173.19L149.8,209.73L161.98,209.73L161.98,119.141L136.858,94.02ZM180.25,156L204,156L204,52L100,52L100,75.75L138.145,75.75C142.183,75.74 146.062,77.347 148.909,80.211L175.789,107.091C178.653,109.938 180.26,113.817 180.25,117.855L180.25,156ZM126.519,126.519C125.278,127.155 123.875,127.515 122.395,127.515L79.765,127.515C74.754,127.515 70.63,123.392 70.63,118.38C70.63,113.369 74.754,109.245 79.765,109.245L122.395,109.245C127.406,109.245 131.53,113.369 131.53,118.38C131.53,121.911 129.482,125.002 126.519,126.519ZM131.53,209.73L131.53,176.235L76.72,176.235L76.72,209.73L131.53,209.73Z" />
</svg>